<?xml version="1.0" encoding="utf-8"?>
<!-- Generator: Adobe Illustrator 22.0.1, SVG Export Plug-In . SVG Version: 6.00 Build 0)  -->
<svg version="1.1" id="Laag_1" xmlns="http://www.w3.org/2000/svg" xmlns:xlink="http://www.w3.org/1999/xlink" x="0px" y="0px"
	 viewBox="0 0 1411.4 515.9" style="enable-background:new 0 0 1411.4 515.9;" xml:space="preserve">
<style type="text/css">
	.st0{fill:#FF2B46;}
	.st1{enable-background:new    ;}
</style>
<g>
	<g>
		<g>
			<circle class="st0" cx="393.1" cy="202" r="11"/>
		</g>
	</g>
	<g>
		<g>
			<path class="st0" d="M480.3,80.3c-7.6,0-14.9,2.7-20.5,7.7l-0.1,0.1c-0.1,0.1-0.2,0.1-0.2,0.2c-24.6,21.8-62.2,20.6-85.5-2.6
				c0,0,0-0.1-0.1-0.1c-0.5-0.5-1.4-1.7-1.4-3.4V58.7c0-14.8-12.1-26.9-26.9-26.9c-14.8,0-26.9,12.1-26.9,26.9v7.6
				c0,2.7-2.2,4.8-4.8,4.8c-2.7,0-4.8-2.2-4.8-4.8V42.8c0-14.8-12.1-26.9-26.9-26.9c-14.8,0-26.9,12.1-26.9,26.9v7.6
				c0,2.7-2.2,4.8-4.8,4.8s-4.8-2.2-4.8-4.8V26.9c0-14.8-12.1-26.9-26.9-26.9c-14.8,0-26.9,12.1-26.9,26.9v23.5
				c0,46.6,27.8,86.9,67.6,105.1c-7.3,3.4-14.2,7.5-20.6,12.2c-16.6,12.2-30.2,28.4-39.3,47.7h-88.2c-15.8,0-31,4.2-44.5,12.3
				c-8.7-1.2-19.5,1.5-29.8,7.9c-7.4,4.6-13.6,10.4-17.4,16.6c-5.2,8.3-5.8,16.9-1.7,23.6c1.2,2,4,5.5,9.1,7.5
				c-1.3,6.1-2,12.2-2,18.5v40.3c0,7.8-6.3,14.1-14.1,14.1c-6.1,0-11,4.9-11,11v133.7c0,6.1,4.9,11,11,11h23c5.4,0,10-3.9,10.9-9.2
				l14.5-84.1c6.5-2.6,12.6-6.2,18-10.6v92.8c0,6.1,4.9,11,11,11h23c5.4,0,10-3.9,10.9-9.2l14.5-84.1c14.7-5.8,27.1-16.8,34.8-30.5
				h56.1v112.8c0,6.1,4.9,11,11,11h27.8c5.4,0,10-3.9,10.9-9.2l19-116.2c2-0.2,4-0.4,6-0.8v115.2c0,6.1,4.9,11,11,11h27.8
				c5.4,0,10-3.9,10.9-9.2l27.5-170.2l8.8,9.9c2.5,2.8,6.4,4.2,10.1,3.5c3.8-0.7,6.9-3.2,8.4-6.7l23.4-57.9c0,0,8,3.1,17.7,3.1
				c27.7,0,50.2-22.5,50.2-50.2c0-18.3-9.9-35-25.8-43.9l-10.8-6.6l-10.3-6.4l-19.1-11.7c24.9-2.1,48.4-12.5,68.5-30.4
				c0.2-0.2,0.5-0.4,0.7-0.6c6.5-5.9,10.2-14.3,10.2-23.1C511.6,94.3,497.6,80.3,480.3,80.3z M123.7,399.8c-4.1,1.1-7.2,4.5-7.9,8.8
				l-14,81.4h-2.7V388.2h44.6C138.1,393.6,131.2,397.6,123.7,399.8z M331.5,489.9h-7.4V379.7c10.2-4.1,19.7-9.7,28.1-16.8
				L331.5,489.9z M461.5,209.4c9,4.9,14.6,14.4,14.6,24.7c0,15.5-12.6,28.1-28.1,28.1c-2.8,0-8.8-1.4-9.2-1.5l-10.9-3.9l0,0
				c-5.6-2-11.8,0.7-14,6.2l-20.7,51.3l-10.5-11.8c-2.7-3-6.8-4.3-10.7-3.4s-7,3.9-8.2,7.7c-9.8,34.2-41.5,58-77.1,58
				c-5.4,0-10,3.9-10.9,9.3l-18.9,115.8h-7.4V377.1c0-6.1-4.9-11-11-11H86.9c-4.4,0-8.4,2.6-10.2,6.7c-5.5,13-16.9,23.1-30.5,26.9
				c-4.1,1.1-7.2,4.5-7.9,8.8l-14,81.4h-2.7V376.5c14.5-4.7,25.1-18.3,25.1-34.4v-40.3c0-8.3,1.6-16.5,4.7-24.2
				c1.5-3.7,0.9-8-1.7-11.1c-2.6-3.1-6.6-4.6-10.6-3.9c-0.1,0-0.2,0-0.4,0.1c1.7-2.3,4.7-5.3,9.4-8.2c8.1-5,14.3-5.2,15.6-4.8
				c3.5,1.6,7.7,1.3,10.9-0.9c10.7-7.4,23.3-11.2,36.3-11.2h95.4c4.7,0,8.7-2.9,10.3-7.1c15-36.8,48.8-61.5,88.4-64.5
				c0.2,0,75.3,0,75.3,0c2.8,0,5.6,0.3,8.3,0.9c2.6,0.6,5.2,1.5,7.7,2.7c0,0,0,0,0.1,0C399,170.7,461.3,209.3,461.5,209.4z
				 M486.5,118.3c-18.6,16.8-40.6,25.6-63.7,25.6H307c-51.5,0-93.4-41.9-93.4-93.4V27c0-2.7,2.2-4.8,4.8-4.8c2.7,0,4.8,2.2,4.8,4.8
				v23.4c0,14.8,12.1,26.9,26.9,26.9c14.5,0,26.3-11.5,26.9-25.8c0-0.2,0-0.4,0-0.5v-8.2c0-2.7,2.2-4.8,4.8-4.8
				c2.7,0,4.8,2.2,4.8,4.8v23.5c0,14.8,12.1,26.9,26.9,26.9c14.5,0,26.3-11.5,26.9-25.8c0-0.2,0-0.4,0-0.5v-8.2
				c0-2.7,2.2-4.8,4.9-4.8s4.8,2.2,4.8,4.8v23.5c0,7,2.7,13.7,7.6,18.7c0.1,0.1,0.2,0.2,0.3,0.3c16.5,16.5,38.2,24.8,59.9,24.8
				c19.9,0,39.7-6.9,55.7-20.9c0.1-0.1,0.1-0.1,0.2-0.2l0,0c0.1-0.1,0.2-0.2,0.3-0.2c1.7-1.5,3.8-2.3,6.1-2.3c5,0,9.1,4.1,9.1,9.1
				C489.5,114.1,488.4,116.5,486.5,118.3z"/>
		</g>
	</g>
	<g>
		<g>
			<path class="st0" d="M327.5,285c-5.9-1.7-12,1.7-13.6,7.6c-3.4,12-14.6,20.4-27.2,20.4c-6.1,0-11,4.9-11,11s4.9,11,11,11
				c22.4,0,42.3-15,48.4-36.4C336.7,292.8,333.3,286.7,327.5,285z"/>
		</g>
	</g>
</g>
<g class="st1">
	<path class="st0" d="M597.8,321.1c-1.4-1.4-2.1-3.1-2.1-5.1v-97.1c0-2,0.7-3.8,2.1-5.2c1.4-1.4,3.1-2.2,5.1-2.2h64.2
		c1.9,0,3.5,0.7,4.9,2c1.3,1.3,2,3,2,4.9s-0.7,3.5-2,4.8c-1.3,1.3-3,1.9-4.9,1.9h-56.8v35.4h51c1.9,0,3.5,0.7,4.9,2
		c1.3,1.3,2,3,2,4.9s-0.7,3.5-2,4.8c-1.3,1.3-3,1.9-4.9,1.9h-51v35.5h56.8c1.9,0,3.5,0.7,4.9,2c1.3,1.3,2,3,2,4.9s-0.7,3.5-2,4.8
		c-1.3,1.3-3,1.9-4.9,1.9h-64.2C600.9,323.1,599.2,322.4,597.8,321.1z"/>
	<path class="st0" d="M692.3,321.9c-1.3-1.4-2-3.1-2-5.1c0-0.9,0.3-1.9,0.8-3.2l40.8-96.3c0.9-1.9,2.1-3.5,3.6-4.7
		c1.5-1.2,3.4-1.8,5.7-1.8h1.6c2.2,0,4.1,0.6,5.7,1.8c1.5,1.2,2.7,2.8,3.6,4.7l40.8,96.3c0.5,1.3,0.8,2.3,0.8,3.2c0,2-0.7,3.7-2,5.1
		c-1.3,1.4-3.1,2.1-5.2,2.1c-1.5,0-2.9-0.4-4.1-1.2c-1.2-0.8-2.2-1.9-2.8-3.3l-10.4-25h-54.4l-10.4,25c-0.6,1.4-1.6,2.5-2.8,3.3
		c-1.2,0.8-2.6,1.2-4.1,1.2C695.3,323.9,693.6,323.2,692.3,321.9z M720.3,281.2h43.2l-21.6-52L720.3,281.2z"/>
	<path class="st0" d="M814.3,317.1c-1.3-0.5-2.3-1.4-3.2-2.6c-0.9-1.2-1.3-2.5-1.3-3.9c0-1.8,0.6-3.4,1.8-4.7c1.2-1.3,2.8-2,4.7-2
		c1.1,0,2.1,0.2,3,0.6c9.8,4.4,20.3,6.6,31.5,6.6c18.7,0,28-6.1,28-18.4c0-3.2-1.2-5.9-3.6-8c-2.4-2.1-5.4-3.8-8.9-5
		c-3.5-1.2-8.5-2.7-15-4.4c-8.6-2.2-15.6-4.4-21-6.5c-5.3-2.1-9.9-5.2-13.8-9.4s-5.8-9.7-5.8-16.6c0-6.1,1.6-11.6,4.8-16.6
		c3.2-5,7.9-8.9,14.2-11.8c6.2-2.9,13.7-4.4,22.5-4.4c11.7,0,22.3,1.8,31.8,5.3c3,1.1,4.5,3.2,4.5,6.4c0,1.7-0.6,3.3-1.8,4.6
		c-1.2,1.4-2.7,2.1-4.6,2.1c-0.6,0-1.5-0.2-2.6-0.6c-8.3-2.9-16.9-4.3-25.8-4.3c-8.4,0-15.3,1.6-20.6,4.8c-5.3,3.2-7.9,7.7-7.9,13.4
		c0,3.8,1.3,7,3.8,9.4c2.5,2.4,5.7,4.3,9.4,5.6c3.8,1.3,8.9,2.7,15.4,4.2c8.4,2,15.2,4.1,20.4,6.1c5.2,2,9.6,5.2,13.3,9.4
		c3.7,4.3,5.5,10,5.5,17.3c0,6-1.7,11.3-5.1,16.1c-3.4,4.7-8.2,8.5-14.4,11.1c-6.2,2.7-13.3,4-21.4,4
		C838.8,324.7,826.1,322.2,814.3,317.1z"/>
	<path class="st0" d="M944.9,321.9c-1.4-1.4-2.2-3.1-2.2-5.1v-40.8l-38.2-53.6c-0.9-1.4-1.3-2.8-1.3-4.3c0-2,0.7-3.8,2-5.2
		c1.3-1.4,3-2.2,5-2.2c2.7,0,4.8,1.2,6.4,3.7l33.4,48.6l33.4-48.6c1.6-2.5,3.7-3.7,6.4-3.7c2,0,3.7,0.7,5.1,2.2
		c1.4,1.4,2,3.2,1.9,5.2c0,1.5-0.4,2.9-1.3,4.3l-38.4,53.6v40.8c0,2-0.7,3.7-2.1,5.1c-1.4,1.4-3.1,2.1-5.1,2.1
		C948.1,323.9,946.3,323.2,944.9,321.9z"/>
	<path class="st0" d="M1061.2,320.2c-2-2-3-4.3-3-7.1v-95c0-2,0.7-3.8,2.1-5.2c1.4-1.4,3.1-2.2,5.1-2.2c2,0,3.8,0.7,5.2,2.2
		c1.4,1.4,2.2,3.2,2.2,5.2v90.6h52.3c2,0,3.8,0.7,5.2,2.2c1.4,1.4,2.2,3.2,2.2,5.2c0,2-0.7,3.7-2.2,5.1c-1.4,1.4-3.2,2.1-5.2,2.1
		h-56.8C1065.6,323.1,1063.2,322.2,1061.2,320.2z"/>
	<path class="st0" d="M1152.5,321.9c-1.4-1.4-2.1-3.1-2.1-5.1V218c0-2,0.7-3.8,2.1-5.2c1.4-1.4,3.1-2.2,5.1-2.2c2,0,3.8,0.7,5.2,2.2
		c1.4,1.4,2.2,3.2,2.2,5.2v98.7c0,2-0.7,3.7-2.2,5.1c-1.4,1.4-3.2,2.1-5.2,2.1C1155.6,323.9,1153.9,323.2,1152.5,321.9z"/>
	<path class="st0" d="M1198.1,321.9c-1.4-1.4-2.1-3.1-2.1-5.1v-95.5c0-2.9,1-5.4,3-7.4c2-2.1,4.5-3.1,7.4-3.1h2.1
		c3.4,0,6.3,1.6,8.8,4.8l61.6,89V218c0-2,0.7-3.8,2.1-5.2c1.4-1.4,3.1-2.2,5.1-2.2c2,0,3.8,0.7,5.2,2.2c1.4,1.4,2.2,3.2,2.2,5.2
		v95.5c0,2.9-1,5.3-3.1,7.4c-2.1,2-4.6,3-7.4,3h-1.9c-1.7,0-3.3-0.4-4.8-1.2c-1.5-0.8-2.7-1.8-3.7-3.1l-61.9-89.4v86.6
		c0,2-0.7,3.7-2.2,5.1c-1.4,1.4-3.2,2.1-5.2,2.1C1201.2,323.9,1199.5,323.2,1198.1,321.9z"/>
	<path class="st0" d="M1326.6,321.9c-1.4-1.4-2.1-3.1-2.1-5.1V218c0-2,0.7-3.8,2.1-5.2c1.4-1.4,3.1-2.2,5.1-2.2c2,0,3.8,0.7,5.2,2.2
		c1.4,1.4,2.2,3.2,2.2,5.2v50.9l54.7-55.7c1.5-1.7,3.3-2.6,5.4-2.6c1.8,0,3.4,0.6,4.7,1.8c1.3,1.2,2,2.7,2,4.6c0,2.1-0.6,3.8-1.8,5
		l-37,36.8l42.4,53.4c1.2,1.5,1.8,3,1.8,4.6c0.1,1.9-0.5,3.6-1.9,5c-1.4,1.4-3.1,2.1-5.1,2.1c-2.5,0-4.4-1-5.8-2.9l-41.3-52.6
		l-18.2,18.4v29.9c0,2-0.7,3.7-2.2,5.1c-1.4,1.4-3.2,2.1-5.2,2.1C1329.7,323.9,1327.9,323.2,1326.6,321.9z"/>
</g>
<g class="st1">
	<path class="st0" d="M607,513.9c-1.4-1.4-2.1-3.1-2.1-5.1V410c0-2,0.7-3.8,2.1-5.2c1.4-1.4,3.1-2.2,5.1-2.2c2,0,3.8,0.7,5.2,2.2
		c1.4,1.4,2.2,3.2,2.2,5.2v50.9l54.7-55.7c1.5-1.7,3.3-2.6,5.4-2.6c1.8,0,3.4,0.6,4.7,1.8c1.3,1.2,2,2.7,2,4.6c0,2.1-0.6,3.8-1.8,5
		l-37,36.8l42.4,53.4c1.2,1.5,1.8,3,1.8,4.6c0.1,1.9-0.5,3.6-1.9,5c-1.4,1.4-3.1,2.1-5.1,2.1c-2.5,0-4.4-1-5.8-2.9l-41.3-52.6
		l-18.2,18.4v29.9c0,2-0.7,3.7-2.2,5.1c-1.4,1.4-3.2,2.1-5.2,2.1C610.1,515.9,608.4,515.2,607,513.9z"/>
	<path class="st0" d="M750.2,513.1c-1.4-1.4-2.1-3.1-2.1-5.1v-97.1c0-2,0.7-3.8,2.1-5.2c1.4-1.4,3.1-2.2,5.1-2.2h64.2
		c1.9,0,3.5,0.7,4.9,2c1.3,1.3,2,3,2,4.9s-0.7,3.5-2,4.8c-1.3,1.3-3,1.9-4.9,1.9h-56.8v35.4h51c1.9,0,3.5,0.7,4.9,2
		c1.3,1.3,2,3,2,4.9s-0.7,3.5-2,4.8c-1.3,1.3-3,1.9-4.9,1.9h-51v35.5h56.8c1.9,0,3.5,0.7,4.9,2c1.3,1.3,2,3,2,4.9s-0.7,3.5-2,4.8
		c-1.3,1.3-3,1.9-4.9,1.9h-64.2C753.3,515.1,751.6,514.4,750.2,513.1z"/>
	<path class="st0" d="M888.3,513.1c-1.4-1.4-2.1-3.1-2.1-5.1v-97.1c0-2,0.7-3.8,2.1-5.2c1.4-1.4,3.1-2.2,5.1-2.2h64.2
		c1.9,0,3.5,0.7,4.9,2c1.3,1.3,2,3,2,4.9s-0.7,3.5-2,4.8c-1.3,1.3-3,1.9-4.9,1.9h-56.8v35.4h51c1.9,0,3.5,0.7,4.9,2
		c1.3,1.3,2,3,2,4.9s-0.7,3.5-2,4.8c-1.3,1.3-3,1.9-4.9,1.9h-51v35.5h56.8c1.9,0,3.5,0.7,4.9,2c1.3,1.3,2,3,2,4.9s-0.7,3.5-2,4.8
		c-1.3,1.3-3,1.9-4.9,1.9h-64.2C891.3,515.1,889.6,514.4,888.3,513.1z"/>
	<path class="st0" d="M1026.3,513.9c-1.4-1.4-2.1-3.1-2.1-5.1v-97.9c0-2,0.7-3.8,2.1-5.2c1.4-1.4,3.1-2.2,5.1-2.2h36.5
		c10.1,0,18.4,1.7,24.8,5.1c6.4,3.4,11,7.8,13.8,13.1c2.8,5.3,4.2,11.1,4.2,17.3c0,6.2-1.4,11.9-4.2,17.3
		c-2.8,5.3-7.4,9.7-13.8,13.1c-6.4,3.4-14.7,5.1-24.8,5.1h-29.1v34.2c0,2-0.7,3.7-2.2,5.1c-1.4,1.4-3.2,2.1-5.2,2.1
		C1029.4,515.9,1027.7,515.2,1026.3,513.9z M1066.5,460.7c10.9,0,18.5-2.1,23-6.2c4.4-4.2,6.6-9.3,6.6-15.5c0-6.2-2.2-11.4-6.6-15.5
		c-4.4-4.2-12.1-6.2-23-6.2h-27.7v43.5H1066.5z"/>
	<path class="st0" d="M1169.8,513.1c-1.4-1.4-2.1-3.1-2.1-5.1v-97.1c0-2,0.7-3.8,2.1-5.2c1.4-1.4,3.1-2.2,5.1-2.2h64.2
		c1.9,0,3.5,0.7,4.9,2c1.3,1.3,2,3,2,4.9s-0.7,3.5-2,4.8c-1.3,1.3-3,1.9-4.9,1.9h-56.8v35.4h51c1.9,0,3.5,0.7,4.9,2
		c1.3,1.3,2,3,2,4.9s-0.7,3.5-2,4.8c-1.3,1.3-3,1.9-4.9,1.9h-51v35.5h56.8c1.9,0,3.5,0.7,4.9,2c1.3,1.3,2,3,2,4.9s-0.7,3.5-2,4.8
		c-1.3,1.3-3,1.9-4.9,1.9H1175C1172.9,515.1,1171.2,514.4,1169.8,513.1z"/>
	<path class="st0" d="M1307.9,513.9c-1.4-1.4-2.1-3.1-2.1-5.1v-97.9c0-2,0.7-3.8,2.1-5.2c1.4-1.4,3.1-2.2,5.1-2.2h37.3
		c14.5,0,25.4,3,32.6,9c7.3,6,10.9,13.8,10.9,23.5c0,6.4-1.8,12.2-5.4,17.5c-3.6,5.3-8.8,9.1-15.6,11.4c7.7,2,12.9,6.8,15.8,14.3
		c2.8,7.5,4.2,14.9,4.2,22.2v7.4c0,2-0.7,3.7-2.1,5.1c-1.4,1.4-3.1,2.1-5.1,2.1c-2.2,0-4-0.7-5.4-2c-1.3-1.3-2-3.1-2-5.2v-4.8
		c0-5.3-0.5-10.3-1.4-14.8c-1-4.5-3.3-8.6-6.9-12.2c-3.6-3.6-9.1-5.4-16.5-5.4h-33.1v37.1c0,2-0.7,3.7-2.2,5.1
		c-1.4,1.4-3.2,2.1-5.2,2.1C1311,515.9,1309.3,515.2,1307.9,513.9z M1349.4,457.9c9.2,0,16.5-1.8,21.8-5.4c5.4-3.6,8.1-8.7,8.1-15.4
		c0-6.4-2.3-11.3-7-14.7c-4.6-3.4-12.6-5.1-23.8-5.1h-28.2v40.6H1349.4z"/>
</g>
</svg>
